<svg width="19" height="18" viewBox="0 0 19 18" fill="none" xmlns="http://www.w3.org/2000/svg">
<path fill-rule="evenodd" clip-rule="evenodd" d="M3.551 8.93288C3.551 5.55955 6.28563 2.82493 9.65896 2.82493C13.0323 2.82493 15.7669 5.55955 15.7669 8.93288C15.7669 12.3062 13.0323 15.0408 9.65896 15.0408C6.28563 15.0408 3.551 12.3062 3.551 8.93288ZM9.65896 1.84766C5.74589 1.84766 2.57373 5.01982 2.57373 8.93288C2.57373 12.8459 5.74589 16.0181 9.65896 16.0181C13.572 16.0181 16.7442 12.8459 16.7442 8.93288C16.7442 5.01982 13.572 1.84766 9.65896 1.84766ZM8.19305 12.3183L13.3237 9.35606C13.6495 9.16798 13.6495 8.69779 13.3237 8.50971L8.19305 5.54751C7.86729 5.35944 7.46009 5.59453 7.46009 5.97068L7.46009 11.8951C7.46009 12.2712 7.86729 12.5063 8.19305 12.3183Z" fill="#FF8710"/>
</svg>
