<svg width="198" height="13" viewBox="0 0 198 13" fill="none" xmlns="http://www.w3.org/2000/svg">
<path fill-rule="evenodd" clip-rule="evenodd" d="M2.27548 1.85241L0.318359 5.3706V12.407H2.27548H4.31415H6.27128H8.30995H10.2671H12.3057H14.2629H16.3015H18.2587H20.2973H22.2545H24.2931H26.2502H28.2889H30.246H32.2847H34.2418H36.2805H38.2376H40.2763H42.2334H44.2721H46.2292H48.2679H50.225H52.2637H54.2208H56.2595H58.2166H60.2553H62.2124H64.2511H66.2082H68.2469H70.204H72.2426H74.1998H76.2384H78.1956H80.2342H82.1914H84.23H86.1871H88.2258H90.1829H92.2216H94.1787H96.2174H98.1745L96.2174 3.02514H94.1787L92.2216 5.3706L90.1829 7.71605H88.2258L86.1871 3.02514L84.23 1.85241L82.1914 0.679688H80.2342H78.1956L76.2384 3.02514L74.1998 1.85241L72.2426 12.407L70.204 6.54332L68.2469 5.3706L66.2082 3.02514L64.2511 10.0615L62.2124 11.2342H60.2553L58.2166 6.54332L56.2595 5.3706L54.2208 10.0615L52.2637 3.02514H50.225L48.2679 11.2342L46.2292 1.85241L44.2721 0.679688L42.2334 4.19787L40.2763 12.407L38.2376 1.85241L36.2805 3.02514L34.2418 7.71605L32.2847 0.679688L30.246 4.19787L28.2889 12.407L26.2502 4.19787L24.2931 10.0615L22.2545 6.54332L20.2973 3.02514L18.2587 6.54332L16.3015 11.2342L14.2629 10.0615L12.3057 6.54332H10.2671L8.30995 8.88878L6.27128 3.02514H4.31415L2.27548 1.85241ZM100.748 7.45481L98.7786 10.5495V12.4063H100.748H102.799H104.768H106.82H108.789H110.84H112.809H114.86H116.83H118.881H120.85H122.901H124.871H126.922H128.891H130.942H132.911H134.963H136.932H138.983H140.952H143.004H144.973H147.024H148.993H151.045H153.014H155.065H157.034H159.085H161.055H163.106H165.075H167.126H169.096H171.147H173.116H175.167H177.137H179.188H181.157H183.208H185.177H187.229H189.198H191.249H193.218H195.27H197.239V7.45481L195.27 9.31163L193.218 9.93057L191.249 9.31163L189.198 9.93057L187.229 11.1684L185.177 8.07375H183.208L181.157 8.69269L179.188 11.1684L177.137 6.83587L175.167 11.7874L173.116 8.07375L171.147 8.69269L169.096 11.1684L167.126 8.69269L165.075 11.7874L163.106 8.07375L161.055 9.31163L159.085 6.21693L157.034 10.5495H155.065H153.014L151.045 9.31163H148.993L147.024 8.07375L144.973 6.21693L143.004 11.1684L140.952 9.93057H138.983L136.932 7.45481L134.963 8.07375L132.911 11.7874L130.942 6.21693L128.891 12.4063L126.922 7.45481L124.871 9.93057L122.901 8.69269L120.85 6.83587L118.881 9.31163L116.83 11.7874H114.86L112.809 9.31163H110.84L108.789 11.1684L106.82 9.31163L104.768 12.4063L102.799 10.5495L100.748 7.45481Z" fill="#787880" fill-opacity="0.32"/>
</svg>
